<svg xmlns="http://www.w3.org/2000/svg" xmlns:xlink="http://www.w3.org/1999/xlink" width="500" zoomAndPan="magnify" viewBox="0 0 375 374.999991" height="500" preserveAspectRatio="xMidYMid meet" version="1.0"><defs><clipPath id="9affbdda53"><path d="M 98 266 L 277 266 L 277 334.066406 L 98 334.066406 Z M 98 266 " clip-rule="nonzero"/></clipPath><clipPath id="df5739b45f"><path d="M 302 170 L 317.730469 170 L 317.730469 227 L 302 227 Z M 302 170 " clip-rule="nonzero"/></clipPath><clipPath id="d76079fb4d"><path d="M 238.320312 128.121094 L 292.640625 128.121094 L 292.640625 259.894531 L 238.320312 259.894531 Z M 238.320312 128.121094 " clip-rule="nonzero"/></clipPath><clipPath id="d635303223"><path d="M 238.320312 232.734375 L 238.320312 155.398438 C 238.320312 148.195312 241.179688 141.289062 246.273438 136.195312 C 251.367188 131.101562 258.277344 128.238281 265.480469 128.238281 C 272.683594 128.238281 279.59375 131.101562 284.6875 136.195312 C 289.777344 141.289062 292.640625 148.195312 292.640625 155.398438 L 292.640625 232.734375 C 292.640625 239.9375 289.777344 246.84375 284.6875 251.9375 C 279.59375 257.03125 272.683594 259.894531 265.480469 259.894531 C 258.277344 259.894531 251.367188 257.03125 246.273438 251.9375 C 241.179688 246.84375 238.320312 239.9375 238.320312 232.734375 Z M 238.320312 232.734375 " clip-rule="nonzero"/></clipPath><clipPath id="a108ccab12"><path d="M 81.371094 128.121094 L 135.691406 128.121094 L 135.691406 259.894531 L 81.371094 259.894531 Z M 81.371094 128.121094 " clip-rule="nonzero"/></clipPath><clipPath id="3a6677f31b"><path d="M 81.371094 232.734375 L 81.371094 155.398438 C 81.371094 148.195312 84.234375 141.289062 89.328125 136.195312 C 94.421875 131.101562 101.328125 128.238281 108.53125 128.238281 C 115.734375 128.238281 122.644531 131.101562 127.738281 136.195312 C 132.832031 141.289062 135.691406 148.195312 135.691406 155.398438 L 135.691406 232.734375 C 135.691406 239.9375 132.832031 246.84375 127.738281 251.9375 C 122.644531 257.03125 115.734375 259.894531 108.53125 259.894531 C 101.328125 259.894531 94.421875 257.03125 89.328125 251.9375 C 84.234375 246.84375 81.371094 239.9375 81.371094 232.734375 Z M 81.371094 232.734375 " clip-rule="nonzero"/></clipPath><clipPath id="1304224470"><path d="M 37 40 L 159 40 L 159 150 L 37 150 Z M 37 40 " clip-rule="nonzero"/></clipPath><clipPath id="e05b150652"><path d="M 62.351562 149.308594 L 37.398438 95.796875 L 155.6875 40.636719 L 180.640625 94.148438 Z M 62.351562 149.308594 " clip-rule="nonzero"/></clipPath><clipPath id="0e8166b370"><path d="M 63.339844 151.429688 L 37.074219 95.101562 L 155.363281 39.9375 L 181.628906 96.265625 Z M 63.339844 151.429688 " clip-rule="nonzero"/></clipPath><clipPath id="bacddb3719"><path d="M 73.707031 173.664062 L 23.800781 66.640625 L 142.089844 11.476562 L 191.996094 118.5 Z M 73.707031 173.664062 " clip-rule="nonzero"/></clipPath><clipPath id="9f99345dca"><path d="M 215 41 L 338 41 L 338 150 L 215 150 Z M 215 41 " clip-rule="nonzero"/></clipPath><clipPath id="0311c8ff88"><path d="M 194.441406 94.707031 L 219.023438 41.023438 L 337.695312 95.355469 L 313.113281 149.042969 Z M 194.441406 94.707031 " clip-rule="nonzero"/></clipPath><clipPath id="68b53c2125"><path d="M 301.660156 173.710938 L 350.820312 66.34375 L 232.148438 12.007812 L 182.988281 119.378906 Z M 301.660156 173.710938 " clip-rule="nonzero"/></clipPath><clipPath id="bcebc8b131"><path d="M 301.660156 173.710938 L 350.820312 66.34375 L 232.148438 12.007812 L 182.988281 119.378906 Z M 301.660156 173.710938 " clip-rule="nonzero"/></clipPath></defs><g clip-path="url(#9affbdda53)"><path fill="#000000" d="M 98.097656 266.707031 C 108.457031 305.421875 144.511719 334.074219 187.277344 334.074219 C 187.285156 334.074219 187.289062 334.074219 187.292969 334.074219 C 187.296875 334.074219 187.300781 334.074219 187.308594 334.074219 C 230.074219 334.074219 266.128906 305.425781 276.488281 266.707031 C 276.476562 266.707031 276.46875 266.710938 276.464844 266.710938 C 276.472656 266.6875 276.480469 266.65625 276.488281 266.632812 C 274.347656 267.277344 269.714844 267.683594 267.425781 267.917969 C 266.789062 269.148438 267.269531 268.359375 266.550781 270.21875 C 257.761719 295.363281 236.761719 315.039062 210.488281 322.453125 C 210.472656 322.457031 210.460938 322.460938 210.449219 322.464844 C 209.425781 322.75 208.394531 323.019531 207.355469 323.269531 C 207.324219 323.28125 207.292969 323.289062 207.261719 323.292969 C 206.238281 323.539062 205.203125 323.765625 204.164062 323.972656 C 204.121094 323.984375 204.078125 323.996094 204.03125 324 C 203.003906 324.207031 201.964844 324.390625 200.925781 324.558594 C 200.867188 324.566406 200.8125 324.578125 200.757812 324.589844 C 199.71875 324.753906 198.675781 324.894531 197.625 325.023438 C 197.5625 325.03125 197.503906 325.039062 197.441406 325.046875 C 196.386719 325.171875 195.320312 325.277344 194.246094 325.363281 C 194.195312 325.367188 194.144531 325.375 194.09375 325.378906 C 191.851562 325.554688 189.582031 325.648438 187.296875 325.648438 C 185.003906 325.648438 182.738281 325.554688 180.496094 325.378906 C 180.441406 325.375 180.390625 325.367188 180.339844 325.363281 C 179.269531 325.277344 178.203125 325.171875 177.144531 325.046875 C 177.082031 325.039062 177.023438 325.027344 176.960938 325.023438 C 175.914062 324.894531 174.871094 324.753906 173.832031 324.589844 C 173.773438 324.578125 173.722656 324.566406 173.664062 324.558594 C 172.621094 324.390625 171.585938 324.207031 170.558594 324 C 170.515625 323.992188 170.46875 323.984375 170.421875 323.972656 C 169.382812 323.765625 168.351562 323.539062 167.324219 323.292969 C 167.296875 323.285156 167.265625 323.277344 167.230469 323.269531 C 166.195312 323.019531 165.160156 322.75 164.140625 322.464844 C 164.125 322.460938 164.113281 322.457031 164.101562 322.453125 C 137.828125 315.039062 116.832031 295.363281 108.039062 270.21875 C 107.320312 268.359375 107.796875 269.148438 107.160156 267.917969 C 104.875 267.683594 100.242188 267.277344 98.101562 266.632812 C 98.109375 266.65625 98.117188 266.6875 98.125 266.710938 C 98.117188 266.710938 98.109375 266.707031 98.097656 266.707031 Z M 98.097656 266.707031 " fill-opacity="1" fill-rule="nonzero"/></g><g clip-path="url(#df5739b45f)"><path fill="#000000" d="M 317.597656 215.542969 L 317.597656 181.246094 C 317.597656 175.210938 312.6875 170.300781 306.652344 170.300781 C 305.117188 170.300781 303.65625 170.621094 302.328125 171.191406 L 302.328125 225.597656 C 303.65625 226.167969 305.117188 226.488281 306.652344 226.488281 C 312.6875 226.488281 317.597656 221.578125 317.597656 215.542969 Z M 317.597656 215.542969 " fill-opacity="1" fill-rule="nonzero"/></g><path fill="#000000" d="M 293.902344 232.210938 L 293.902344 160.433594 C 293.902344 146.6875 283.773438 135.265625 270.589844 133.230469 L 270.589844 259.414062 C 283.773438 257.378906 293.902344 245.957031 293.902344 232.210938 Z M 293.902344 232.210938 " fill-opacity="1" fill-rule="nonzero"/><path fill="#000000" d="M 238.855469 160.433594 L 238.855469 232.210938 C 238.855469 245.957031 248.980469 257.378906 262.164062 259.414062 L 262.164062 133.230469 C 248.980469 135.265625 238.855469 146.691406 238.855469 160.433594 Z M 238.855469 160.433594 " fill-opacity="1" fill-rule="nonzero"/><path fill="#000000" d="M 68.207031 170.300781 C 62.171875 170.300781 57.257812 175.210938 57.257812 181.246094 L 57.257812 215.542969 C 57.257812 221.578125 62.171875 226.488281 68.207031 226.488281 C 69.742188 226.488281 71.199219 226.167969 72.523438 225.601562 L 72.523438 171.191406 C 71.199219 170.621094 69.742188 170.300781 68.207031 170.300781 Z M 68.207031 170.300781 " fill-opacity="1" fill-rule="nonzero"/><path fill="#000000" d="M 104.265625 133.230469 C 91.082031 135.265625 80.953125 146.6875 80.953125 160.433594 L 80.953125 232.210938 C 80.953125 245.957031 91.082031 257.378906 104.265625 259.414062 Z M 104.265625 133.230469 " fill-opacity="1" fill-rule="nonzero"/><path fill="#000000" d="M 136.007812 232.210938 L 136.007812 160.433594 C 136.007812 146.6875 125.878906 135.261719 112.695312 133.230469 L 112.695312 259.414062 C 125.878906 257.378906 136.007812 245.957031 136.007812 232.210938 Z M 136.007812 232.210938 " fill-opacity="1" fill-rule="nonzero"/><g clip-path="url(#d76079fb4d)"><g clip-path="url(#d635303223)"><path fill="#000000" d="M 238.320312 259.894531 L 238.320312 128.335938 L 292.640625 128.335938 L 292.640625 259.894531 Z M 238.320312 259.894531 " fill-opacity="1" fill-rule="nonzero"/></g></g><g clip-path="url(#a108ccab12)"><g clip-path="url(#3a6677f31b)"><path fill="#000000" d="M 81.371094 259.894531 L 81.371094 128.335938 L 135.691406 128.335938 L 135.691406 259.894531 Z M 81.371094 259.894531 " fill-opacity="1" fill-rule="nonzero"/></g></g><g clip-path="url(#1304224470)"><g clip-path="url(#e05b150652)"><g clip-path="url(#0e8166b370)"><g clip-path="url(#bacddb3719)"><path fill="#000000" d="M 73.703125 173.652344 L 60.511719 145.363281 C 67.867188 161.136719 86.871094 167.511719 103.320312 159.839844 Z M 82.714844 87.09375 C 60.222656 97.585938 50.246094 123.351562 60.320312 144.957031 C 57.757812 139.050781 60.441406 132.109375 66.515625 129.277344 L 130.925781 99.242188 C 154.628906 88.1875 165.097656 60.816406 154.554688 38.207031 C 157.800781 45.167969 154.53125 53.605469 147.28125 56.984375 Z M 23.804688 66.652344 L 37.128906 95.21875 C 29.84375 79.601562 36.972656 60.511719 53.425781 52.839844 Z M 23.804688 66.652344 " fill-opacity="1" fill-rule="nonzero"/></g></g></g></g><g clip-path="url(#9f99345dca)"><g clip-path="url(#0311c8ff88)"><g clip-path="url(#68b53c2125)"><g clip-path="url(#bcebc8b131)"><path fill="#000000" d="M 301.664062 173.699219 L 314.65625 145.320312 C 307.414062 161.148438 288.453125 167.652344 271.949219 160.09375 Z M 292.050781 87.210938 C 314.613281 97.542969 324.769531 123.234375 314.84375 144.914062 C 317.367188 138.988281 314.636719 132.066406 308.542969 129.277344 L 243.921875 99.691406 C 220.144531 88.804688 209.484375 61.507812 219.871094 38.824219 C 216.671875 45.808594 220 54.222656 227.273438 57.550781 Z M 350.8125 66.355469 L 337.691406 95.015625 C 344.863281 79.347656 337.605469 60.304688 321.097656 52.75 Z M 350.8125 66.355469 " fill-opacity="1" fill-rule="nonzero"/></g></g></g></g></svg>