<svg xmlns="http://www.w3.org/2000/svg" xmlns:xlink="http://www.w3.org/1999/xlink" width="500" zoomAndPan="magnify" viewBox="0 0 375 374.999991" height="500" preserveAspectRatio="xMidYMid meet" version="1.0"><defs><g/><clipPath id="c0767b9203"><path d="M 158 176 L 217 176 L 217 198.59375 L 158 198.59375 Z M 158 176 " clip-rule="nonzero"/></clipPath><clipPath id="f7e08babff"><path d="M 224 145 L 229.507812 145 L 229.507812 164 L 224 164 Z M 224 145 " clip-rule="nonzero"/></clipPath><clipPath id="0a2cf085b7"><path d="M 214 133.4375 L 222 133.4375 L 222 175 L 214 175 Z M 214 133.4375 " clip-rule="nonzero"/></clipPath><clipPath id="2b0da83e12"><path d="M 204 133.4375 L 212 133.4375 L 212 175 L 204 175 Z M 204 133.4375 " clip-rule="nonzero"/></clipPath><clipPath id="0a973d9192"><path d="M 145.308594 145 L 151 145 L 151 164 L 145.308594 164 Z M 145.308594 145 " clip-rule="nonzero"/></clipPath><clipPath id="c570c32ef8"><path d="M 153 133.4375 L 161 133.4375 L 161 175 L 153 175 Z M 153 133.4375 " clip-rule="nonzero"/></clipPath><clipPath id="34b6ae611c"><path d="M 163 133.4375 L 171 133.4375 L 171 175 L 163 175 Z M 163 133.4375 " clip-rule="nonzero"/></clipPath><clipPath id="2e803764c4"><path d="M 203.890625 132.164062 L 221.414062 132.164062 L 221.414062 174.667969 L 203.890625 174.667969 Z M 203.890625 132.164062 " clip-rule="nonzero"/></clipPath><clipPath id="e6339f9751"><path d="M 203.890625 165.90625 L 203.890625 140.960938 C 203.890625 138.640625 204.816406 136.410156 206.457031 134.769531 C 208.101562 133.125 210.328125 132.203125 212.652344 132.203125 C 214.976562 132.203125 217.203125 133.125 218.847656 134.769531 C 220.492188 136.410156 221.414062 138.640625 221.414062 140.960938 L 221.414062 165.90625 C 221.414062 168.230469 220.492188 170.457031 218.847656 172.101562 C 217.203125 173.746094 214.976562 174.667969 212.652344 174.667969 C 210.328125 174.667969 208.101562 173.746094 206.457031 172.101562 C 204.816406 170.457031 203.890625 168.230469 203.890625 165.90625 Z M 203.890625 165.90625 " clip-rule="nonzero"/></clipPath><clipPath id="68f2228564"><path d="M 153.269531 132.164062 L 170.789062 132.164062 L 170.789062 174.667969 L 153.269531 174.667969 Z M 153.269531 132.164062 " clip-rule="nonzero"/></clipPath><clipPath id="9acee8a67c"><path d="M 153.269531 165.90625 L 153.269531 140.960938 C 153.269531 138.640625 154.191406 136.410156 155.835938 134.769531 C 157.476562 133.125 159.707031 132.203125 162.027344 132.203125 C 164.351562 132.203125 166.582031 133.125 168.222656 134.769531 C 169.867188 136.410156 170.789062 138.640625 170.789062 140.960938 L 170.789062 165.90625 C 170.789062 168.230469 169.867188 170.457031 168.222656 172.101562 C 166.582031 173.746094 164.351562 174.667969 162.027344 174.667969 C 159.707031 174.667969 157.476562 173.746094 155.835938 172.101562 C 154.191406 170.457031 153.269531 168.230469 153.269531 165.90625 Z M 153.269531 165.90625 " clip-rule="nonzero"/></clipPath><clipPath id="e5f1ada82d"><path d="M 139 103 L 179 103 L 179 139 L 139 139 Z M 139 103 " clip-rule="nonzero"/></clipPath><clipPath id="88c55db237"><path d="M 147.132812 138.996094 L 139.085938 121.738281 L 177.238281 103.945312 L 185.289062 121.207031 Z M 147.132812 138.996094 " clip-rule="nonzero"/></clipPath><clipPath id="3775c1a853"><path d="M 150.839844 146.949219 L 134.742188 112.429688 L 172.898438 94.636719 L 188.996094 129.15625 Z M 150.839844 146.949219 " clip-rule="nonzero"/></clipPath><clipPath id="546273af19"><path d="M 196 104 L 236 104 L 236 139 L 196 139 Z M 196 104 " clip-rule="nonzero"/></clipPath><clipPath id="b4a7e7e778"><path d="M 189.738281 121.386719 L 197.667969 104.070312 L 235.945312 121.597656 L 228.015625 138.910156 Z M 189.738281 121.386719 " clip-rule="nonzero"/></clipPath><clipPath id="710c8e88df"><path d="M 224.324219 146.871094 L 240.179688 112.238281 L 201.902344 94.710938 L 186.042969 129.34375 Z M 224.324219 146.871094 " clip-rule="nonzero"/></clipPath></defs><g fill="#ffffff" fill-opacity="1"><g transform="translate(37.500002, 256.291712)"><g><path d="M 21.859375 0 L 13.171875 0 L 13.171875 -34.125 L 0.84375 -34.125 L 0.84375 -42.515625 L 34.1875 -42.515625 L 34.1875 -34.125 L 21.859375 -34.125 Z M 21.859375 0 "/></g></g></g><g fill="#ffffff" fill-opacity="1"><g transform="translate(71.325102, 256.291712)"><g><path d="M 15.796875 0.796875 C 13.328125 0.796875 11.148438 0.238281 9.265625 -0.875 C 7.378906 -1.988281 5.910156 -3.566406 4.859375 -5.609375 C 3.804688 -7.660156 3.28125 -10.019531 3.28125 -12.6875 L 3.28125 -30.96875 L 11.546875 -30.96875 L 11.546875 -13.421875 C 11.546875 -11.597656 12.128906 -10.046875 13.296875 -8.765625 C 14.472656 -7.492188 15.929688 -6.859375 17.671875 -6.859375 C 19.453125 -6.859375 20.921875 -7.484375 22.078125 -8.734375 C 23.234375 -9.992188 23.8125 -11.554688 23.8125 -13.421875 L 23.8125 -30.96875 L 32.0625 -30.96875 L 32.0625 0 L 25.875 0 L 24.53125 -3.03125 L 24.234375 -3.03125 C 23.585938 -2.226562 22.515625 -1.390625 21.015625 -0.515625 C 19.515625 0.359375 17.773438 0.796875 15.796875 0.796875 Z M 15.796875 0.796875 "/></g></g></g><g fill="#ffffff" fill-opacity="1"><g transform="translate(105.757453, 256.291712)"><g/></g></g><g fill="#ffffff" fill-opacity="1"><g transform="translate(119.846197, 256.291712)"><g><path d="M 3.578125 10.9375 L 3.578125 -30.96875 L 9.78125 -30.96875 L 11.109375 -27.9375 L 11.421875 -27.9375 C 12.109375 -28.789062 13.21875 -29.640625 14.75 -30.484375 C 16.289062 -31.335938 18.113281 -31.765625 20.21875 -31.765625 C 22.726562 -31.765625 25.085938 -31.054688 27.296875 -29.640625 C 29.503906 -28.222656 31.265625 -26.269531 32.578125 -23.78125 C 33.898438 -21.289062 34.5625 -18.523438 34.5625 -15.484375 C 34.5625 -12.453125 33.898438 -9.691406 32.578125 -7.203125 C 31.265625 -4.710938 29.503906 -2.753906 27.296875 -1.328125 C 25.085938 0.0859375 22.726562 0.796875 20.21875 0.796875 C 18.882812 0.796875 17.640625 0.582031 16.484375 0.15625 C 15.335938 -0.269531 14.390625 -0.742188 13.640625 -1.265625 C 12.890625 -1.796875 12.390625 -2.265625 12.140625 -2.671875 L 11.84375 -2.671875 L 11.84375 10.9375 Z M 19.078125 -6.859375 C 20.367188 -6.859375 21.5625 -7.222656 22.65625 -7.953125 C 23.75 -8.679688 24.628906 -9.703125 25.296875 -11.015625 C 25.960938 -12.335938 26.296875 -13.828125 26.296875 -15.484375 C 26.296875 -17.148438 25.960938 -18.640625 25.296875 -19.953125 C 24.628906 -21.265625 23.75 -22.285156 22.65625 -23.015625 C 21.5625 -23.742188 20.367188 -24.109375 19.078125 -24.109375 C 17.773438 -24.109375 16.578125 -23.742188 15.484375 -23.015625 C 14.390625 -22.285156 13.507812 -21.265625 12.84375 -19.953125 C 12.175781 -18.640625 11.84375 -17.148438 11.84375 -15.484375 C 11.84375 -13.828125 12.175781 -12.335938 12.84375 -11.015625 C 13.507812 -9.703125 14.390625 -8.679688 15.484375 -7.953125 C 16.578125 -7.222656 17.773438 -6.859375 19.078125 -6.859375 Z M 19.078125 -6.859375 "/></g></g></g><g fill="#ffffff" fill-opacity="1"><g transform="translate(155.128728, 256.291712)"><g><path d="M 17.796875 0.796875 C 15.003906 0.796875 12.390625 0.0546875 9.953125 -1.421875 C 7.523438 -2.898438 5.582031 -4.894531 4.125 -7.40625 C 2.664062 -9.914062 1.9375 -12.609375 1.9375 -15.484375 C 1.9375 -18.359375 2.664062 -21.050781 4.125 -23.5625 C 5.582031 -26.070312 7.523438 -28.066406 9.953125 -29.546875 C 12.390625 -31.023438 15.003906 -31.765625 17.796875 -31.765625 C 20.585938 -31.765625 23.195312 -31.023438 25.625 -29.546875 C 28.0625 -28.066406 30.003906 -26.070312 31.453125 -23.5625 C 32.910156 -21.050781 33.640625 -18.359375 33.640625 -15.484375 C 33.640625 -12.609375 32.910156 -9.914062 31.453125 -7.40625 C 30.003906 -4.894531 28.0625 -2.898438 25.625 -1.421875 C 23.195312 0.0546875 20.585938 0.796875 17.796875 0.796875 Z M 17.796875 -6.859375 C 19.984375 -6.859375 21.796875 -7.664062 23.234375 -9.28125 C 24.671875 -10.90625 25.390625 -12.972656 25.390625 -15.484375 C 25.390625 -17.992188 24.671875 -20.054688 23.234375 -21.671875 C 21.796875 -23.296875 19.984375 -24.109375 17.796875 -24.109375 C 15.609375 -24.109375 13.796875 -23.296875 12.359375 -21.671875 C 10.921875 -20.054688 10.203125 -17.992188 10.203125 -15.484375 C 10.203125 -12.972656 10.921875 -10.90625 12.359375 -9.28125 C 13.796875 -7.664062 15.609375 -6.859375 17.796875 -6.859375 Z M 17.796875 -6.859375 "/></g></g></g><g fill="#ffffff" fill-opacity="1"><g transform="translate(189.500384, 256.291712)"><g><path d="M 16.28125 0.796875 C 13.769531 0.796875 11.410156 0.0859375 9.203125 -1.328125 C 6.992188 -2.753906 5.226562 -4.710938 3.90625 -7.203125 C 2.59375 -9.691406 1.9375 -12.453125 1.9375 -15.484375 C 1.9375 -18.523438 2.59375 -21.289062 3.90625 -23.78125 C 5.226562 -26.269531 6.992188 -28.222656 9.203125 -29.640625 C 11.410156 -31.054688 13.769531 -31.765625 16.28125 -31.765625 C 17.613281 -31.765625 18.859375 -31.550781 20.015625 -31.125 C 21.171875 -30.695312 22.117188 -30.21875 22.859375 -29.6875 C 23.609375 -29.164062 24.109375 -28.703125 24.359375 -28.296875 L 24.65625 -28.296875 L 24.65625 -42.515625 L 32.921875 -42.515625 L 32.921875 0 L 26.71875 0 L 25.390625 -3.03125 L 25.078125 -3.03125 C 24.390625 -2.1875 23.273438 -1.335938 21.734375 -0.484375 C 20.203125 0.367188 18.382812 0.796875 16.28125 0.796875 Z M 17.4375 -6.859375 C 18.726562 -6.859375 19.921875 -7.222656 21.015625 -7.953125 C 22.109375 -8.679688 22.988281 -9.703125 23.65625 -11.015625 C 24.320312 -12.335938 24.65625 -13.828125 24.65625 -15.484375 C 24.65625 -17.148438 24.320312 -18.640625 23.65625 -19.953125 C 22.988281 -21.265625 22.109375 -22.285156 21.015625 -23.015625 C 19.921875 -23.742188 18.726562 -24.109375 17.4375 -24.109375 C 16.132812 -24.109375 14.9375 -23.742188 13.84375 -23.015625 C 12.75 -22.285156 11.867188 -21.265625 11.203125 -19.953125 C 10.535156 -18.640625 10.203125 -17.148438 10.203125 -15.484375 C 10.203125 -13.828125 10.535156 -12.335938 11.203125 -11.015625 C 11.867188 -9.703125 12.75 -8.679688 13.84375 -7.953125 C 14.9375 -7.222656 16.132812 -6.859375 17.4375 -6.859375 Z M 17.4375 -6.859375 "/></g></g></g><g fill="#ffffff" fill-opacity="1"><g transform="translate(225.086579, 256.291712)"><g><path d="M 17.796875 0.796875 C 15.003906 0.796875 12.390625 0.0546875 9.953125 -1.421875 C 7.523438 -2.898438 5.582031 -4.894531 4.125 -7.40625 C 2.664062 -9.914062 1.9375 -12.609375 1.9375 -15.484375 C 1.9375 -18.359375 2.664062 -21.050781 4.125 -23.5625 C 5.582031 -26.070312 7.523438 -28.066406 9.953125 -29.546875 C 12.390625 -31.023438 15.003906 -31.765625 17.796875 -31.765625 C 20.347656 -31.765625 22.675781 -31.164062 24.78125 -29.96875 C 26.882812 -28.78125 28.601562 -27.222656 29.9375 -25.296875 C 31.28125 -23.367188 32.148438 -21.375 32.546875 -19.3125 L 24.296875 -19.3125 C 24.128906 -19.875 23.78125 -20.53125 23.25 -21.28125 C 22.726562 -22.03125 22 -22.6875 21.0625 -23.25 C 20.132812 -23.820312 19.046875 -24.109375 17.796875 -24.109375 C 15.609375 -24.109375 13.796875 -23.296875 12.359375 -21.671875 C 10.921875 -20.054688 10.203125 -17.992188 10.203125 -15.484375 C 10.203125 -12.972656 10.921875 -10.90625 12.359375 -9.28125 C 13.796875 -7.664062 15.609375 -6.859375 17.796875 -6.859375 C 19.046875 -6.859375 20.132812 -7.140625 21.0625 -7.703125 C 22 -8.273438 22.726562 -8.9375 23.25 -9.6875 C 23.78125 -10.4375 24.128906 -11.09375 24.296875 -11.65625 L 32.546875 -11.65625 C 32.148438 -9.59375 31.28125 -7.597656 29.9375 -5.671875 C 28.601562 -3.753906 26.882812 -2.195312 24.78125 -1 C 22.675781 0.195312 20.347656 0.796875 17.796875 0.796875 Z M 17.796875 0.796875 "/></g></g></g><g fill="#ffffff" fill-opacity="1"><g transform="translate(258.061489, 256.291712)"><g><path d="M 15.734375 -31.765625 C 19.742188 -31.765625 22.898438 -30.554688 25.203125 -28.140625 C 27.515625 -25.734375 28.671875 -22.53125 28.671875 -18.53125 L 28.671875 0 L 22.46875 0 L 21.140625 -3.03125 L 20.828125 -3.03125 C 18.398438 -0.476562 15.46875 0.796875 12.03125 0.796875 C 10.082031 0.796875 8.304688 0.390625 6.703125 -0.421875 C 5.109375 -1.234375 3.851562 -2.347656 2.9375 -3.765625 C 2.03125 -5.179688 1.578125 -6.738281 1.578125 -8.4375 C 1.578125 -10.539062 2.203125 -12.375 3.453125 -13.9375 C 4.710938 -15.5 6.46875 -16.691406 8.71875 -17.515625 C 10.96875 -18.347656 13.546875 -18.765625 16.453125 -18.765625 L 20.40625 -18.765625 L 20.40625 -19.375 C 20.40625 -20.957031 19.976562 -22.191406 19.125 -23.078125 C 18.28125 -23.972656 17.128906 -24.421875 15.671875 -24.421875 C 14.410156 -24.421875 13.40625 -24.082031 12.65625 -23.40625 C 11.914062 -22.738281 11.460938 -22.019531 11.296875 -21.25 L 3.03125 -21.25 C 3.195312 -23.070312 3.773438 -24.78125 4.765625 -26.375 C 5.753906 -27.976562 7.179688 -29.273438 9.046875 -30.265625 C 10.910156 -31.265625 13.140625 -31.765625 15.734375 -31.765625 Z M 13.96875 -5.953125 C 15.875 -5.953125 17.421875 -6.519531 18.609375 -7.65625 C 19.804688 -8.789062 20.40625 -10.125 20.40625 -11.65625 L 20.40625 -13.234375 L 16.21875 -13.234375 C 13.988281 -13.234375 12.367188 -12.878906 11.359375 -12.171875 C 10.347656 -11.460938 9.84375 -10.484375 9.84375 -9.234375 C 9.84375 -8.265625 10.195312 -7.472656 10.90625 -6.859375 C 11.613281 -6.253906 12.632812 -5.953125 13.96875 -5.953125 Z M 13.96875 -5.953125 "/></g></g></g><g fill="#ffffff" fill-opacity="1"><g transform="translate(288.789501, 256.291712)"><g><path d="M 14.453125 0.796875 C 11.941406 0.796875 9.722656 0.34375 7.796875 -0.5625 C 5.878906 -1.476562 4.394531 -2.734375 3.34375 -4.328125 C 2.289062 -5.929688 1.722656 -7.726562 1.640625 -9.71875 L 9.71875 -9.71875 C 9.800781 -8.539062 10.273438 -7.597656 11.140625 -6.890625 C 12.015625 -6.179688 13.117188 -5.828125 14.453125 -5.828125 C 15.742188 -5.828125 16.742188 -6.097656 17.453125 -6.640625 C 18.171875 -7.191406 18.53125 -7.875 18.53125 -8.6875 C 18.53125 -9.695312 18.039062 -10.484375 17.0625 -11.046875 C 16.09375 -11.617188 14.578125 -12.226562 12.515625 -12.875 C 10.410156 -13.519531 8.675781 -14.164062 7.3125 -14.8125 C 5.957031 -15.46875 4.796875 -16.410156 3.828125 -17.640625 C 2.859375 -18.878906 2.375 -20.46875 2.375 -22.40625 C 2.375 -24.1875 2.835938 -25.785156 3.765625 -27.203125 C 4.691406 -28.617188 6.046875 -29.734375 7.828125 -30.546875 C 9.609375 -31.359375 11.738281 -31.765625 14.21875 -31.765625 C 16.5625 -31.765625 18.632812 -31.316406 20.4375 -30.421875 C 22.238281 -29.535156 23.644531 -28.3125 24.65625 -26.75 C 25.664062 -25.195312 26.253906 -23.46875 26.421875 -21.5625 L 18.28125 -21.5625 C 18 -23.945312 16.644531 -25.140625 14.21875 -25.140625 C 13.039062 -25.140625 12.144531 -24.90625 11.53125 -24.4375 C 10.925781 -23.976562 10.625 -23.382812 10.625 -22.65625 C 10.625 -21.757812 11.078125 -21.054688 11.984375 -20.546875 C 12.898438 -20.046875 14.367188 -19.492188 16.390625 -18.890625 C 18.535156 -18.242188 20.296875 -17.601562 21.671875 -16.96875 C 23.054688 -16.34375 24.253906 -15.390625 25.265625 -14.109375 C 26.273438 -12.835938 26.78125 -11.191406 26.78125 -9.171875 C 26.78125 -6.210938 25.695312 -3.8125 23.53125 -1.96875 C 21.363281 -0.125 18.335938 0.796875 14.453125 0.796875 Z M 14.453125 0.796875 "/></g></g></g><g fill="#ffffff" fill-opacity="1"><g transform="translate(316.238255, 256.291712)"><g><path d="M 16.15625 0.796875 C 13.082031 0.796875 10.570312 -0.210938 8.625 -2.234375 C 6.675781 -4.265625 5.703125 -7.019531 5.703125 -10.5 L 5.703125 -23.625 L 0.90625 -23.625 L 0.90625 -30.359375 L 3.03125 -30.359375 C 4.207031 -30.359375 5.117188 -30.671875 5.765625 -31.296875 C 6.410156 -31.929688 6.734375 -32.835938 6.734375 -34.015625 L 6.734375 -38.75 L 13.96875 -38.75 L 13.96875 -30.96875 L 20.34375 -30.96875 L 20.34375 -23.625 L 13.96875 -23.625 L 13.96875 -11.359375 C 13.96875 -9.898438 14.34375 -8.804688 15.09375 -8.078125 C 15.84375 -7.347656 16.882812 -6.984375 18.21875 -6.984375 C 19.070312 -6.984375 19.78125 -7.125 20.34375 -7.40625 L 20.34375 0.125 C 19.09375 0.570312 17.695312 0.796875 16.15625 0.796875 Z M 16.15625 0.796875 "/></g></g></g><g clip-path="url(#c0767b9203)"><path fill="#ffffff" d="M 158.664062 176.863281 C 162.003906 189.351562 173.632812 198.59375 187.429688 198.59375 C 187.429688 198.59375 187.433594 198.59375 187.433594 198.59375 C 187.433594 198.59375 187.4375 198.59375 187.4375 198.59375 C 201.234375 198.59375 212.863281 189.351562 216.203125 176.863281 C 216.199219 176.867188 216.199219 176.867188 216.195312 176.867188 C 216.199219 176.859375 216.199219 176.847656 216.203125 176.839844 C 215.511719 177.050781 214.019531 177.179688 213.28125 177.257812 C 213.074219 177.652344 213.230469 177.398438 212.996094 177.996094 C 210.164062 186.109375 203.390625 192.453125 194.914062 194.847656 C 194.910156 194.847656 194.90625 194.847656 194.902344 194.847656 C 194.574219 194.941406 194.238281 195.027344 193.90625 195.109375 C 193.894531 195.113281 193.882812 195.113281 193.875 195.117188 C 193.542969 195.195312 193.210938 195.269531 192.875 195.335938 C 192.859375 195.339844 192.847656 195.34375 192.832031 195.34375 C 192.5 195.410156 192.164062 195.472656 191.832031 195.527344 C 191.8125 195.527344 191.792969 195.53125 191.777344 195.535156 C 191.441406 195.585938 191.105469 195.632812 190.765625 195.675781 C 190.746094 195.675781 190.726562 195.679688 190.707031 195.683594 C 190.367188 195.722656 190.023438 195.757812 189.675781 195.785156 C 189.660156 195.785156 189.644531 195.789062 189.625 195.789062 C 188.902344 195.847656 188.171875 195.875 187.433594 195.875 C 186.695312 195.875 185.964844 195.847656 185.242188 195.789062 C 185.222656 195.789062 185.207031 195.785156 185.191406 195.785156 C 184.84375 195.757812 184.5 195.722656 184.160156 195.683594 C 184.140625 195.679688 184.121094 195.675781 184.101562 195.675781 C 183.761719 195.632812 183.425781 195.585938 183.089844 195.535156 C 183.074219 195.53125 183.054688 195.527344 183.039062 195.527344 C 182.699219 195.472656 182.367188 195.410156 182.035156 195.34375 C 182.019531 195.34375 182.007812 195.339844 181.992188 195.335938 C 181.65625 195.269531 181.324219 195.195312 180.992188 195.117188 C 180.984375 195.113281 180.972656 195.113281 180.960938 195.109375 C 180.628906 195.027344 180.292969 194.941406 179.964844 194.847656 C 179.960938 194.847656 179.957031 194.847656 179.953125 194.847656 C 171.476562 192.453125 164.707031 186.109375 161.871094 177.996094 C 161.636719 177.398438 161.792969 177.652344 161.585938 177.257812 C 160.847656 177.179688 159.355469 177.050781 158.664062 176.839844 C 158.667969 176.847656 158.667969 176.859375 158.671875 176.867188 C 158.667969 176.867188 158.667969 176.867188 158.664062 176.863281 Z M 158.664062 176.863281 " fill-opacity="1" fill-rule="nonzero"/></g><g clip-path="url(#f7e08babff)"><path fill="#ffffff" d="M 229.464844 160.363281 L 229.464844 149.300781 C 229.464844 147.351562 227.878906 145.769531 225.933594 145.769531 C 225.4375 145.769531 224.964844 145.871094 224.539062 146.058594 L 224.539062 163.605469 C 224.964844 163.789062 225.4375 163.890625 225.933594 163.890625 C 227.878906 163.894531 229.464844 162.308594 229.464844 160.363281 Z M 229.464844 160.363281 " fill-opacity="1" fill-rule="nonzero"/></g><g clip-path="url(#0a2cf085b7)"><path fill="#ffffff" d="M 221.820312 165.738281 L 221.820312 142.585938 C 221.820312 138.152344 218.554688 134.46875 214.300781 133.8125 L 214.300781 174.511719 C 218.554688 173.855469 221.820312 170.171875 221.820312 165.738281 Z M 221.820312 165.738281 " fill-opacity="1" fill-rule="nonzero"/></g><g clip-path="url(#2b0da83e12)"><path fill="#ffffff" d="M 204.0625 142.585938 L 204.0625 165.738281 C 204.0625 170.171875 207.332031 173.855469 211.582031 174.511719 L 211.582031 133.8125 C 207.332031 134.46875 204.0625 138.152344 204.0625 142.585938 Z M 204.0625 142.585938 " fill-opacity="1" fill-rule="nonzero"/></g><g clip-path="url(#0a973d9192)"><path fill="#ffffff" d="M 149.023438 145.769531 C 147.074219 145.769531 145.492188 147.351562 145.492188 149.300781 L 145.492188 160.363281 C 145.492188 162.308594 147.074219 163.894531 149.023438 163.894531 C 149.515625 163.894531 149.988281 163.789062 150.414062 163.605469 L 150.414062 146.054688 C 149.988281 145.871094 149.515625 145.769531 149.023438 145.769531 Z M 149.023438 145.769531 " fill-opacity="1" fill-rule="nonzero"/></g><g clip-path="url(#c570c32ef8)"><path fill="#ffffff" d="M 160.652344 133.8125 C 156.398438 134.46875 153.132812 138.152344 153.132812 142.585938 L 153.132812 165.738281 C 153.132812 170.171875 156.398438 173.855469 160.652344 174.511719 Z M 160.652344 133.8125 " fill-opacity="1" fill-rule="nonzero"/></g><g clip-path="url(#34b6ae611c)"><path fill="#ffffff" d="M 170.890625 165.738281 L 170.890625 142.585938 C 170.890625 138.152344 167.625 134.46875 163.371094 133.8125 L 163.371094 174.511719 C 167.625 173.855469 170.890625 170.171875 170.890625 165.738281 Z M 170.890625 165.738281 " fill-opacity="1" fill-rule="nonzero"/></g><g clip-path="url(#2e803764c4)"><g clip-path="url(#e6339f9751)"><path fill="#ffffff" d="M 203.890625 174.667969 L 203.890625 132.234375 L 221.414062 132.234375 L 221.414062 174.667969 Z M 203.890625 174.667969 " fill-opacity="1" fill-rule="nonzero"/></g></g><g clip-path="url(#68f2228564)"><g clip-path="url(#9acee8a67c)"><path fill="#ffffff" d="M 153.269531 174.667969 L 153.269531 132.234375 L 170.789062 132.234375 L 170.789062 174.667969 Z M 153.269531 174.667969 " fill-opacity="1" fill-rule="nonzero"/></g></g><g clip-path="url(#e5f1ada82d)"><g clip-path="url(#88c55db237)"><g clip-path="url(#3775c1a853)"><path fill="#ffffff" d="M 150.839844 146.945312 L 146.640625 137.941406 C 148.980469 142.960938 155.082031 144.96875 160.382812 142.496094 Z M 153.863281 119.320312 C 146.617188 122.699219 143.371094 130.933594 146.578125 137.8125 C 145.765625 135.933594 146.636719 133.714844 148.59375 132.800781 L 169.347656 123.125 C 176.984375 119.5625 180.390625 110.816406 177.035156 103.617188 C 178.066406 105.835938 177.003906 108.53125 174.667969 109.621094 Z M 134.957031 112.886719 L 139.195312 121.980469 C 136.878906 117.007812 139.199219 110.90625 144.5 108.4375 Z M 134.957031 112.886719 " fill-opacity="1" fill-rule="nonzero"/></g></g></g><g clip-path="url(#546273af19)"><g clip-path="url(#b4a7e7e778)"><g clip-path="url(#710c8e88df)"><path fill="#ffffff" d="M 224.324219 146.867188 L 228.460938 137.832031 C 226.152344 142.871094 220.066406 144.917969 214.75 142.480469 Z M 221.105469 119.261719 C 228.375 122.589844 231.679688 130.800781 228.519531 137.703125 C 229.320312 135.816406 228.433594 133.605469 226.46875 132.707031 L 205.648438 123.171875 C 197.988281 119.664062 194.519531 110.941406 197.828125 103.722656 C 196.808594 105.945312 197.890625 108.632812 200.234375 109.707031 Z M 239.96875 112.695312 L 235.792969 121.820312 C 238.074219 116.832031 235.710938 110.746094 230.394531 108.3125 Z M 239.96875 112.695312 " fill-opacity="1" fill-rule="nonzero"/></g></g></g></svg>