<svg xmlns="http://www.w3.org/2000/svg" xmlns:xlink="http://www.w3.org/1999/xlink" width="500" zoomAndPan="magnify" viewBox="0 0 375 374.999991" height="500" preserveAspectRatio="xMidYMid meet" version="1.0"><defs><g/><clipPath id="86cdb815ee"><path d="M 34 207 L 80 207 L 80 225.167969 L 34 225.167969 Z M 34 207 " clip-rule="nonzero"/></clipPath><clipPath id="759d756fd4"><path d="M 86 183 L 90.488281 183 L 90.488281 198 L 86 198 Z M 86 183 " clip-rule="nonzero"/></clipPath><clipPath id="8cc8f0c8c8"><path d="M 78 173.253906 L 85 173.253906 L 85 206 L 78 206 Z M 78 173.253906 " clip-rule="nonzero"/></clipPath><clipPath id="aa2cd7716a"><path d="M 70 173.253906 L 77 173.253906 L 77 206 L 70 206 Z M 70 173.253906 " clip-rule="nonzero"/></clipPath><clipPath id="9b8a424a23"><path d="M 23.402344 183 L 28 183 L 28 198 L 23.402344 198 Z M 23.402344 183 " clip-rule="nonzero"/></clipPath><clipPath id="72066e2470"><path d="M 29 173.253906 L 36 173.253906 L 36 206 L 29 206 Z M 29 173.253906 " clip-rule="nonzero"/></clipPath><clipPath id="f7ea1e76d2"><path d="M 37 173.253906 L 44 173.253906 L 44 206 L 37 206 Z M 37 173.253906 " clip-rule="nonzero"/></clipPath><clipPath id="10282a54e6"><path d="M 70.078125 172.242188 L 84.039062 172.242188 L 84.039062 206.105469 L 70.078125 206.105469 Z M 70.078125 172.242188 " clip-rule="nonzero"/></clipPath><clipPath id="185ed072dc"><path d="M 70.078125 199.125 L 70.078125 179.25 C 70.078125 177.398438 70.816406 175.625 72.125 174.316406 C 73.433594 173.007812 75.207031 172.269531 77.058594 172.269531 C 78.910156 172.269531 80.6875 173.007812 81.996094 174.316406 C 83.304688 175.625 84.039062 177.398438 84.039062 179.25 L 84.039062 199.125 C 84.039062 200.976562 83.304688 202.75 81.996094 204.058594 C 80.6875 205.371094 78.910156 206.105469 77.058594 206.105469 C 75.207031 206.105469 73.433594 205.371094 72.125 204.058594 C 70.816406 202.75 70.078125 200.976562 70.078125 199.125 Z M 70.078125 199.125 " clip-rule="nonzero"/></clipPath><clipPath id="b6a4f5fda8"><path d="M 29.746094 172.242188 L 43.707031 172.242188 L 43.707031 206.105469 L 29.746094 206.105469 Z M 29.746094 172.242188 " clip-rule="nonzero"/></clipPath><clipPath id="106248d9c5"><path d="M 29.746094 199.125 L 29.746094 179.25 C 29.746094 177.398438 30.480469 175.625 31.789062 174.316406 C 33.097656 173.007812 34.875 172.269531 36.726562 172.269531 C 38.578125 172.269531 40.351562 173.007812 41.660156 174.316406 C 42.96875 175.625 43.707031 177.398438 43.707031 179.25 L 43.707031 199.125 C 43.707031 200.976562 42.96875 202.75 41.660156 204.058594 C 40.351562 205.371094 38.578125 206.105469 36.726562 206.105469 C 34.875 206.105469 33.097656 205.371094 31.789062 204.058594 C 30.480469 202.75 29.746094 200.976562 29.746094 199.125 Z M 29.746094 199.125 " clip-rule="nonzero"/></clipPath><clipPath id="91408639f4"><path d="M 18 149 L 50 149 L 50 178 L 18 178 Z M 18 149 " clip-rule="nonzero"/></clipPath><clipPath id="cf5ff9009c"><path d="M 24.855469 177.683594 L 18.445312 163.933594 L 48.84375 149.757812 L 55.257812 163.507812 Z M 24.855469 177.683594 " clip-rule="nonzero"/></clipPath><clipPath id="c269d7849a"><path d="M 25.109375 178.230469 L 18.359375 163.753906 L 48.761719 149.578125 L 55.511719 164.054688 Z M 25.109375 178.230469 " clip-rule="nonzero"/></clipPath><clipPath id="f1704fe011"><path d="M 27.777344 183.945312 L 14.949219 156.441406 L 45.347656 142.261719 L 58.175781 169.769531 Z M 27.777344 183.945312 " clip-rule="nonzero"/></clipPath><clipPath id="3995b642eb"><path d="M 64 149 L 96 149 L 96 178 L 64 178 Z M 64 149 " clip-rule="nonzero"/></clipPath><clipPath id="1a95f69556"><path d="M 58.804688 163.652344 L 65.121094 149.855469 L 95.617188 163.820312 L 89.300781 177.617188 Z M 58.804688 163.652344 " clip-rule="nonzero"/></clipPath><clipPath id="18661deeef"><path d="M 86.355469 183.957031 L 98.992188 156.363281 L 68.492188 142.398438 L 55.859375 169.992188 Z M 86.355469 183.957031 " clip-rule="nonzero"/></clipPath><clipPath id="b122af6a77"><path d="M 86.355469 183.957031 L 98.992188 156.363281 L 68.492188 142.398438 L 55.859375 169.992188 Z M 86.355469 183.957031 " clip-rule="nonzero"/></clipPath></defs><g clip-path="url(#86cdb815ee)"><path fill="#000000" d="M 34.042969 207.855469 C 36.707031 217.804688 45.972656 225.167969 56.960938 225.167969 C 56.964844 225.167969 56.964844 225.167969 56.964844 225.167969 C 56.96875 225.167969 56.96875 225.167969 56.96875 225.167969 C 67.960938 225.167969 77.226562 217.804688 79.886719 207.855469 C 79.886719 207.855469 79.882812 207.855469 79.882812 207.855469 C 79.882812 207.851562 79.886719 207.84375 79.886719 207.835938 C 79.339844 208.003906 78.148438 208.105469 77.558594 208.167969 C 77.394531 208.484375 77.519531 208.28125 77.335938 208.757812 C 75.074219 215.21875 69.679688 220.277344 62.925781 222.183594 C 62.921875 222.183594 62.921875 222.183594 62.917969 222.183594 C 62.652344 222.257812 62.390625 222.328125 62.121094 222.390625 C 62.113281 222.394531 62.105469 222.394531 62.097656 222.398438 C 61.835938 222.460938 61.570312 222.519531 61.300781 222.574219 C 61.289062 222.574219 61.28125 222.578125 61.265625 222.578125 C 61.003906 222.632812 60.738281 222.679688 60.46875 222.722656 C 60.453125 222.726562 60.441406 222.726562 60.425781 222.730469 C 60.160156 222.773438 59.890625 222.808594 59.621094 222.84375 C 59.605469 222.84375 59.589844 222.847656 59.574219 222.847656 C 59.304688 222.878906 59.027344 222.90625 58.753906 222.929688 C 58.738281 222.929688 58.726562 222.933594 58.714844 222.933594 C 58.136719 222.980469 57.554688 223.003906 56.964844 223.003906 C 56.378906 223.003906 55.796875 222.980469 55.21875 222.933594 C 55.207031 222.933594 55.191406 222.929688 55.179688 222.929688 C 54.902344 222.90625 54.628906 222.878906 54.359375 222.847656 C 54.34375 222.847656 54.328125 222.84375 54.3125 222.84375 C 54.042969 222.808594 53.773438 222.773438 53.507812 222.730469 C 53.492188 222.726562 53.476562 222.726562 53.464844 222.722656 C 53.195312 222.679688 52.929688 222.632812 52.664062 222.578125 C 52.652344 222.578125 52.640625 222.574219 52.628906 222.574219 C 52.363281 222.519531 52.097656 222.460938 51.835938 222.398438 C 51.828125 222.394531 51.820312 222.394531 51.808594 222.390625 C 51.542969 222.328125 51.277344 222.257812 51.015625 222.183594 C 51.011719 222.183594 51.007812 222.183594 51.007812 222.183594 C 44.253906 220.277344 38.859375 215.21875 36.597656 208.757812 C 36.414062 208.28125 36.535156 208.484375 36.371094 208.167969 C 35.785156 208.105469 34.59375 208.003906 34.042969 207.835938 C 34.046875 207.84375 34.046875 207.851562 34.050781 207.855469 C 34.046875 207.855469 34.046875 207.855469 34.042969 207.855469 Z M 34.042969 207.855469 " fill-opacity="1" fill-rule="nonzero"/></g><g clip-path="url(#759d756fd4)"><path fill="#000000" d="M 90.453125 194.707031 L 90.453125 185.894531 C 90.453125 184.34375 89.191406 183.078125 87.640625 183.078125 C 87.246094 183.078125 86.871094 183.164062 86.53125 183.308594 L 86.53125 197.289062 C 86.871094 197.4375 87.246094 197.519531 87.640625 197.519531 C 89.191406 197.519531 90.453125 196.257812 90.453125 194.707031 Z M 90.453125 194.707031 " fill-opacity="1" fill-rule="nonzero"/></g><g clip-path="url(#8cc8f0c8c8)"><path fill="#000000" d="M 84.363281 198.992188 L 84.363281 180.542969 C 84.363281 177.011719 81.761719 174.074219 78.371094 173.554688 L 78.371094 205.980469 C 81.761719 205.457031 84.363281 202.523438 84.363281 198.992188 Z M 84.363281 198.992188 " fill-opacity="1" fill-rule="nonzero"/></g><g clip-path="url(#aa2cd7716a)"><path fill="#000000" d="M 70.214844 180.542969 L 70.214844 198.992188 C 70.214844 202.523438 72.820312 205.457031 76.207031 205.980469 L 76.207031 173.554688 C 72.820312 174.074219 70.214844 177.011719 70.214844 180.542969 Z M 70.214844 180.542969 " fill-opacity="1" fill-rule="nonzero"/></g><g clip-path="url(#9b8a424a23)"><path fill="#000000" d="M 26.363281 183.078125 C 24.808594 183.078125 23.546875 184.34375 23.546875 185.894531 L 23.546875 194.707031 C 23.546875 196.257812 24.808594 197.519531 26.363281 197.519531 C 26.757812 197.519531 27.132812 197.4375 27.472656 197.292969 L 27.472656 183.308594 C 27.132812 183.160156 26.757812 183.078125 26.363281 183.078125 Z M 26.363281 183.078125 " fill-opacity="1" fill-rule="nonzero"/></g><g clip-path="url(#72066e2470)"><path fill="#000000" d="M 35.628906 173.554688 C 32.238281 174.074219 29.636719 177.011719 29.636719 180.542969 L 29.636719 198.992188 C 29.636719 202.523438 32.238281 205.457031 35.628906 205.980469 Z M 35.628906 173.554688 " fill-opacity="1" fill-rule="nonzero"/></g><g clip-path="url(#f7ea1e76d2)"><path fill="#000000" d="M 43.785156 198.992188 L 43.785156 180.542969 C 43.785156 177.011719 41.183594 174.074219 37.792969 173.554688 L 37.792969 205.980469 C 41.183594 205.457031 43.785156 202.523438 43.785156 198.992188 Z M 43.785156 198.992188 " fill-opacity="1" fill-rule="nonzero"/></g><g clip-path="url(#10282a54e6)"><g clip-path="url(#185ed072dc)"><path fill="#000000" d="M 70.078125 206.105469 L 70.078125 172.292969 L 84.039062 172.292969 L 84.039062 206.105469 Z M 70.078125 206.105469 " fill-opacity="1" fill-rule="nonzero"/></g></g><g clip-path="url(#b6a4f5fda8)"><g clip-path="url(#106248d9c5)"><path fill="#000000" d="M 29.746094 206.105469 L 29.746094 172.292969 L 43.707031 172.292969 L 43.707031 206.105469 Z M 29.746094 206.105469 " fill-opacity="1" fill-rule="nonzero"/></g></g><g clip-path="url(#91408639f4)"><g clip-path="url(#cf5ff9009c)"><g clip-path="url(#c269d7849a)"><g clip-path="url(#f1704fe011)"><path fill="#000000" d="M 27.773438 183.941406 L 24.382812 176.671875 C 26.273438 180.726562 31.15625 182.363281 35.386719 180.390625 Z M 30.089844 161.695312 C 24.308594 164.390625 21.746094 171.015625 24.335938 176.566406 C 23.675781 175.050781 24.367188 173.265625 25.925781 172.539062 L 42.480469 164.816406 C 48.570312 161.976562 51.261719 154.945312 48.550781 149.132812 C 49.386719 150.921875 48.546875 153.089844 46.683594 153.957031 Z M 14.949219 156.441406 L 18.375 163.785156 C 16.503906 159.769531 18.335938 154.863281 22.5625 152.894531 Z M 14.949219 156.441406 " fill-opacity="1" fill-rule="nonzero"/></g></g></g></g><g clip-path="url(#3995b642eb)"><g clip-path="url(#1a95f69556)"><g clip-path="url(#18661deeef)"><g clip-path="url(#b122af6a77)"><path fill="#000000" d="M 86.359375 183.953125 L 89.699219 176.660156 C 87.835938 180.726562 82.964844 182.398438 78.722656 180.457031 Z M 83.886719 161.726562 C 89.6875 164.382812 92.296875 170.984375 89.746094 176.554688 C 90.394531 175.035156 89.691406 173.253906 88.125 172.539062 L 71.519531 164.933594 C 65.410156 162.136719 62.667969 155.121094 65.335938 149.292969 C 64.515625 151.085938 65.371094 153.25 67.242188 154.105469 Z M 98.988281 156.367188 L 95.617188 163.730469 C 97.460938 159.707031 95.59375 154.8125 91.351562 152.871094 Z M 98.988281 156.367188 " fill-opacity="1" fill-rule="nonzero"/></g></g></g></g><g fill="#000000" fill-opacity="1"><g transform="translate(100.805153, 205.731013)"><g><path d="M 18.53125 0 L 11.171875 0 L 11.171875 -28.921875 L 0.71875 -28.921875 L 0.71875 -36.03125 L 28.984375 -36.03125 L 28.984375 -28.921875 L 18.53125 -28.921875 Z M 18.53125 0 "/></g></g></g><g fill="#000000" fill-opacity="1"><g transform="translate(129.477223, 205.731013)"><g><path d="M 13.375 0.671875 C 11.289062 0.671875 9.445312 0.203125 7.84375 -0.734375 C 6.25 -1.679688 5.003906 -3.019531 4.109375 -4.75 C 3.222656 -6.488281 2.78125 -8.488281 2.78125 -10.75 L 2.78125 -26.25 L 9.78125 -26.25 L 9.78125 -11.375 C 9.78125 -9.832031 10.273438 -8.519531 11.265625 -7.4375 C 12.265625 -6.351562 13.503906 -5.8125 14.984375 -5.8125 C 16.484375 -5.8125 17.722656 -6.34375 18.703125 -7.40625 C 19.679688 -8.46875 20.171875 -9.789062 20.171875 -11.375 L 20.171875 -26.25 L 27.171875 -26.25 L 27.171875 0 L 21.921875 0 L 20.796875 -2.578125 L 20.53125 -2.578125 C 19.988281 -1.890625 19.082031 -1.175781 17.8125 -0.4375 C 16.539062 0.300781 15.0625 0.671875 13.375 0.671875 Z M 13.375 0.671875 "/></g></g></g><g fill="#000000" fill-opacity="1"><g transform="translate(158.664033, 205.731013)"><g/></g></g><g fill="#000000" fill-opacity="1"><g transform="translate(170.606451, 205.731013)"><g><path d="M 3.03125 9.265625 L 3.03125 -26.25 L 8.28125 -26.25 L 9.421875 -23.671875 L 9.671875 -23.671875 C 10.253906 -24.390625 11.195312 -25.109375 12.5 -25.828125 C 13.8125 -26.554688 15.359375 -26.921875 17.140625 -26.921875 C 19.265625 -26.921875 21.257812 -26.316406 23.125 -25.109375 C 25 -23.910156 26.492188 -22.253906 27.609375 -20.140625 C 28.722656 -18.035156 29.28125 -15.695312 29.28125 -13.125 C 29.28125 -10.550781 28.722656 -8.207031 27.609375 -6.09375 C 26.492188 -3.988281 25 -2.332031 23.125 -1.125 C 21.257812 0.0703125 19.265625 0.671875 17.140625 0.671875 C 16.003906 0.671875 14.945312 0.488281 13.96875 0.125 C 12.988281 -0.226562 12.179688 -0.628906 11.546875 -1.078125 C 10.921875 -1.523438 10.503906 -1.921875 10.296875 -2.265625 L 10.03125 -2.265625 L 10.03125 9.265625 Z M 16.15625 -5.8125 C 17.257812 -5.8125 18.273438 -6.117188 19.203125 -6.734375 C 20.128906 -7.359375 20.875 -8.226562 21.4375 -9.34375 C 22 -10.457031 22.28125 -11.71875 22.28125 -13.125 C 22.28125 -14.53125 22 -15.789062 21.4375 -16.90625 C 20.875 -18.019531 20.128906 -18.882812 19.203125 -19.5 C 18.273438 -20.125 17.257812 -20.4375 16.15625 -20.4375 C 15.0625 -20.4375 14.050781 -20.125 13.125 -19.5 C 12.195312 -18.882812 11.445312 -18.019531 10.875 -16.90625 C 10.3125 -15.789062 10.03125 -14.53125 10.03125 -13.125 C 10.03125 -11.71875 10.3125 -10.457031 10.875 -9.34375 C 11.445312 -8.226562 12.195312 -7.359375 13.125 -6.734375 C 14.050781 -6.117188 15.0625 -5.8125 16.15625 -5.8125 Z M 16.15625 -5.8125 "/></g></g></g><g fill="#000000" fill-opacity="1"><g transform="translate(200.513922, 205.731013)"><g><path d="M 15.078125 0.671875 C 12.710938 0.671875 10.5 0.046875 8.4375 -1.203125 C 6.382812 -2.460938 4.738281 -4.15625 3.5 -6.28125 C 2.257812 -8.40625 1.640625 -10.6875 1.640625 -13.125 C 1.640625 -15.5625 2.257812 -17.84375 3.5 -19.96875 C 4.738281 -22.09375 6.382812 -23.78125 8.4375 -25.03125 C 10.5 -26.289062 12.710938 -26.921875 15.078125 -26.921875 C 17.441406 -26.921875 19.65625 -26.289062 21.71875 -25.03125 C 23.78125 -23.78125 25.425781 -22.09375 26.65625 -19.96875 C 27.894531 -17.84375 28.515625 -15.5625 28.515625 -13.125 C 28.515625 -10.6875 27.894531 -8.40625 26.65625 -6.28125 C 25.425781 -4.15625 23.78125 -2.460938 21.71875 -1.203125 C 19.65625 0.046875 17.441406 0.671875 15.078125 0.671875 Z M 15.078125 -5.8125 C 16.929688 -5.8125 18.46875 -6.5 19.6875 -7.875 C 20.90625 -9.25 21.515625 -11 21.515625 -13.125 C 21.515625 -15.25 20.90625 -17 19.6875 -18.375 C 18.46875 -19.75 16.929688 -20.4375 15.078125 -20.4375 C 13.222656 -20.4375 11.6875 -19.75 10.46875 -18.375 C 9.25 -17 8.640625 -15.25 8.640625 -13.125 C 8.640625 -11 9.25 -9.25 10.46875 -7.875 C 11.6875 -6.5 13.222656 -5.8125 15.078125 -5.8125 Z M 15.078125 -5.8125 "/></g></g></g><g fill="#000000" fill-opacity="1"><g transform="translate(229.649284, 205.731013)"><g><path d="M 13.796875 0.671875 C 11.671875 0.671875 9.671875 0.0703125 7.796875 -1.125 C 5.929688 -2.332031 4.4375 -3.988281 3.3125 -6.09375 C 2.195312 -8.207031 1.640625 -10.550781 1.640625 -13.125 C 1.640625 -15.695312 2.195312 -18.035156 3.3125 -20.140625 C 4.4375 -22.253906 5.929688 -23.910156 7.796875 -25.109375 C 9.671875 -26.316406 11.671875 -26.921875 13.796875 -26.921875 C 14.921875 -26.921875 15.972656 -26.738281 16.953125 -26.375 C 17.929688 -26.019531 18.738281 -25.617188 19.375 -25.171875 C 20.007812 -24.722656 20.429688 -24.328125 20.640625 -23.984375 L 20.890625 -23.984375 L 20.890625 -36.03125 L 27.890625 -36.03125 L 27.890625 0 L 22.640625 0 L 21.515625 -2.578125 L 21.25 -2.578125 C 20.664062 -1.859375 19.722656 -1.132812 18.421875 -0.40625 C 17.117188 0.3125 15.578125 0.671875 13.796875 0.671875 Z M 14.765625 -5.8125 C 15.867188 -5.8125 16.882812 -6.117188 17.8125 -6.734375 C 18.738281 -7.359375 19.484375 -8.226562 20.046875 -9.34375 C 20.609375 -10.457031 20.890625 -11.71875 20.890625 -13.125 C 20.890625 -14.53125 20.609375 -15.789062 20.046875 -16.90625 C 19.484375 -18.019531 18.738281 -18.882812 17.8125 -19.5 C 16.882812 -20.125 15.867188 -20.4375 14.765625 -20.4375 C 13.671875 -20.4375 12.660156 -20.125 11.734375 -19.5 C 10.804688 -18.882812 10.054688 -18.019531 9.484375 -16.90625 C 8.921875 -15.789062 8.640625 -14.53125 8.640625 -13.125 C 8.640625 -11.71875 8.921875 -10.457031 9.484375 -9.34375 C 10.054688 -8.226562 10.804688 -7.359375 11.734375 -6.734375 C 12.660156 -6.117188 13.671875 -5.8125 14.765625 -5.8125 Z M 14.765625 -5.8125 "/></g></g></g><g fill="#000000" fill-opacity="1"><g transform="translate(259.814157, 205.731013)"><g><path d="M 15.078125 0.671875 C 12.710938 0.671875 10.5 0.046875 8.4375 -1.203125 C 6.382812 -2.460938 4.738281 -4.15625 3.5 -6.28125 C 2.257812 -8.40625 1.640625 -10.6875 1.640625 -13.125 C 1.640625 -15.5625 2.257812 -17.84375 3.5 -19.96875 C 4.738281 -22.09375 6.382812 -23.78125 8.4375 -25.03125 C 10.5 -26.289062 12.710938 -26.921875 15.078125 -26.921875 C 17.242188 -26.921875 19.21875 -26.410156 21 -25.390625 C 22.78125 -24.378906 24.238281 -23.054688 25.375 -21.421875 C 26.507812 -19.796875 27.25 -18.109375 27.59375 -16.359375 L 20.59375 -16.359375 C 20.445312 -16.847656 20.148438 -17.40625 19.703125 -18.03125 C 19.265625 -18.664062 18.648438 -19.222656 17.859375 -19.703125 C 17.066406 -20.191406 16.140625 -20.4375 15.078125 -20.4375 C 13.222656 -20.4375 11.6875 -19.75 10.46875 -18.375 C 9.25 -17 8.640625 -15.25 8.640625 -13.125 C 8.640625 -11 9.25 -9.25 10.46875 -7.875 C 11.6875 -6.5 13.222656 -5.8125 15.078125 -5.8125 C 16.140625 -5.8125 17.066406 -6.050781 17.859375 -6.53125 C 18.648438 -7.007812 19.265625 -7.566406 19.703125 -8.203125 C 20.148438 -8.835938 20.445312 -9.394531 20.59375 -9.875 L 27.59375 -9.875 C 27.25 -8.125 26.507812 -6.4375 25.375 -4.8125 C 24.238281 -3.1875 22.78125 -1.863281 21 -0.84375 C 19.21875 0.164062 17.242188 0.671875 15.078125 0.671875 Z M 15.078125 0.671875 "/></g></g></g><g fill="#000000" fill-opacity="1"><g transform="translate(287.765558, 205.731013)"><g><path d="M 13.328125 -26.921875 C 16.722656 -26.921875 19.398438 -25.898438 21.359375 -23.859375 C 23.316406 -21.816406 24.296875 -19.097656 24.296875 -15.703125 L 24.296875 0 L 19.046875 0 L 17.90625 -2.578125 L 17.65625 -2.578125 C 15.59375 -0.410156 13.101562 0.671875 10.1875 0.671875 C 8.539062 0.671875 7.039062 0.328125 5.6875 -0.359375 C 4.332031 -1.046875 3.269531 -1.988281 2.5 -3.1875 C 1.726562 -4.394531 1.34375 -5.71875 1.34375 -7.15625 C 1.34375 -8.9375 1.875 -10.488281 2.9375 -11.8125 C 4 -13.132812 5.484375 -14.144531 7.390625 -14.84375 C 9.296875 -15.550781 11.484375 -15.90625 13.953125 -15.90625 L 17.296875 -15.90625 L 17.296875 -16.421875 C 17.296875 -17.753906 16.929688 -18.796875 16.203125 -19.546875 C 15.484375 -20.304688 14.507812 -20.6875 13.28125 -20.6875 C 12.21875 -20.6875 11.367188 -20.398438 10.734375 -19.828125 C 10.097656 -19.265625 9.710938 -18.660156 9.578125 -18.015625 L 2.578125 -18.015625 C 2.710938 -19.554688 3.195312 -21.003906 4.03125 -22.359375 C 4.875 -23.710938 6.082031 -24.8125 7.65625 -25.65625 C 9.238281 -26.5 11.128906 -26.921875 13.328125 -26.921875 Z M 11.84375 -5.046875 C 13.445312 -5.046875 14.753906 -5.523438 15.765625 -6.484375 C 16.785156 -7.441406 17.296875 -8.570312 17.296875 -9.875 L 17.296875 -11.21875 L 13.734375 -11.21875 C 11.847656 -11.21875 10.476562 -10.914062 9.625 -10.3125 C 8.769531 -9.71875 8.34375 -8.890625 8.34375 -7.828125 C 8.34375 -7.003906 8.640625 -6.332031 9.234375 -5.8125 C 9.835938 -5.300781 10.707031 -5.046875 11.84375 -5.046875 Z M 11.84375 -5.046875 "/></g></g></g><g fill="#000000" fill-opacity="1"><g transform="translate(313.812361, 205.731013)"><g><path d="M 12.25 0.671875 C 10.125 0.671875 8.242188 0.285156 6.609375 -0.484375 C 4.984375 -1.253906 3.722656 -2.316406 2.828125 -3.671875 C 1.941406 -5.035156 1.460938 -6.554688 1.390625 -8.234375 L 8.234375 -8.234375 C 8.304688 -7.242188 8.707031 -6.445312 9.4375 -5.84375 C 10.175781 -5.238281 11.113281 -4.9375 12.25 -4.9375 C 13.34375 -4.9375 14.191406 -5.164062 14.796875 -5.625 C 15.398438 -6.09375 15.703125 -6.671875 15.703125 -7.359375 C 15.703125 -8.210938 15.289062 -8.878906 14.46875 -9.359375 C 13.644531 -9.847656 12.359375 -10.363281 10.609375 -10.90625 C 8.816406 -11.457031 7.347656 -12.003906 6.203125 -12.546875 C 5.054688 -13.097656 4.066406 -13.894531 3.234375 -14.9375 C 2.410156 -15.988281 2 -17.335938 2 -18.984375 C 2 -20.492188 2.394531 -21.847656 3.1875 -23.046875 C 3.976562 -24.253906 5.128906 -25.203125 6.640625 -25.890625 C 8.148438 -26.578125 9.953125 -26.921875 12.046875 -26.921875 C 14.035156 -26.921875 15.789062 -26.539062 17.3125 -25.78125 C 18.84375 -25.03125 20.035156 -23.992188 20.890625 -22.671875 C 21.753906 -21.347656 22.253906 -19.878906 22.390625 -18.265625 L 15.484375 -18.265625 C 15.242188 -20.296875 14.097656 -21.3125 12.046875 -21.3125 C 11.046875 -21.3125 10.285156 -21.113281 9.765625 -20.71875 C 9.253906 -20.320312 9 -19.816406 9 -19.203125 C 9 -18.441406 9.382812 -17.847656 10.15625 -17.421875 C 10.9375 -16.992188 12.179688 -16.519531 13.890625 -16 C 15.710938 -15.457031 17.207031 -14.921875 18.375 -14.390625 C 19.539062 -13.859375 20.550781 -13.050781 21.40625 -11.96875 C 22.269531 -10.882812 22.703125 -9.484375 22.703125 -7.765625 C 22.703125 -5.265625 21.78125 -3.234375 19.9375 -1.671875 C 18.101562 -0.109375 15.539062 0.671875 12.25 0.671875 Z M 12.25 0.671875 "/></g></g></g><g fill="#000000" fill-opacity="1"><g transform="translate(337.079479, 205.731013)"><g><path d="M 13.6875 0.671875 C 11.082031 0.671875 8.957031 -0.1875 7.3125 -1.90625 C 5.664062 -3.625 4.84375 -5.957031 4.84375 -8.90625 L 4.84375 -20.015625 L 0.765625 -20.015625 L 0.765625 -25.734375 L 2.578125 -25.734375 C 3.566406 -25.734375 4.335938 -26 4.890625 -26.53125 C 5.441406 -27.0625 5.71875 -27.828125 5.71875 -28.828125 L 5.71875 -32.84375 L 11.84375 -32.84375 L 11.84375 -26.25 L 17.234375 -26.25 L 17.234375 -20.015625 L 11.84375 -20.015625 L 11.84375 -9.625 C 11.84375 -8.382812 12.15625 -7.457031 12.78125 -6.84375 C 13.414062 -6.226562 14.300781 -5.921875 15.4375 -5.921875 C 16.15625 -5.921875 16.753906 -6.039062 17.234375 -6.28125 L 17.234375 0.109375 C 16.171875 0.484375 14.988281 0.671875 13.6875 0.671875 Z M 13.6875 0.671875 "/></g></g></g></svg>